<svg xmlns="http://www.w3.org/2000/svg" viewBox="0 0 199.61 245.76"><defs><style>.cls-1{fill:#2f3033;}.cls-2{fill:#ed6435;}</style></defs><g id="katman_2" data-name="katman 2"><g id="katman_1-2" data-name="katman 1"><g id="OBJECTS"><path class="cls-1" d="M199.4,237.25c-1.69-6.47-13.65-12.1-17.45-18.85s-5.48-13.64-8.58-15.05a11.53,11.53,0,0,0-5.06-1.27S152.41,178,148.9,172.69s-8.72-4.65-13.37-10.41-10.41-21.24-9.7-21.67,6.75-3.65,3.94-10.83-13.23-20-15.9-28S98,87.3,96.29,81.11,95,63.25,96.15,59.17s1.68-3.94,2.11-3.94,11.25,4.08,14.2,4.22A5.31,5.31,0,0,0,117,57.06a39.16,39.16,0,0,0,13.92,1.54c6.89-.7,30.81-1.12,30.81-3.09S164.79,44,164.37,44s-16.18.85-25.6-2.11-14.07-4.5-18.71-3.37l-4.64,1.12s0-2.25-4.22-3.65-3.52-1.83-8.72-5.21S85,26,85,26s-.48-.07-1.36-.12c.63-1.34,1.34-4.28.24-5.93L82.5,17.81s.85-11.11-9.56-16S52,3.18,47.48,8.53s-2,17.24-2,17.24a2.3,2.3,0,0,0-2.68,2.31c-.14,2.67,3.38,6.47,5.63,7.31a2.87,2.87,0,0,0,.37.11c-1.43.91-2.87,1.9-4.31,3,0,0-12.52,14.49-14.91,21.1S19.62,76.33,15.4,82.1s-3.09,8.29-3.09,8.29S1.76,109.24.21,113.46s5.49,12.8,18.29,20.26S50.71,149.61,52.82,151s3.24,6.61,6.47,11,14.21,19.84,17.3,25.32S88,192.52,88,192.52s15.75,13.5,19.41,15.19,30.67,9.71,30.81,10.41,4.22,12.8,3.23,18.71,2.11,8.58,3.94,8.86,12.94-.28,14.77-1.41-.28-7.87-1.55-13.08-3.51-10.55-4.5-15.33-1.4-8.58-4.36-10-8.58-1.83-8.58-1.83-10.41-6.19-15.47-9.56-4.5-2.11-4.36-3.1-6.33-12.94-8.16-16.31a25,25,0,0,1-2.25-5.07s6.19,6.47,11,8.72,6.19,8.16,15,13.37,21.8,18.84,21.8,18.84,2.11,7.18,3.1,10,6.61,4.22,8.72,7.88,8.72,13.5,15.33,16S201.08,243.72,199.4,237.25ZM24.83,109.74c0-1,2.11-3.45,4.36-4.93S35,98.34,35,98.34a81.33,81.33,0,0,0,4.08,13c2.74,6.61,7.1,18.15,7.1,18.36S24.83,110.72,24.83,109.74Z"/><circle class="cls-2" cx="173.55" cy="37.07" r="22.44"/></g></g></g></svg>