<svg xmlns="http://www.w3.org/2000/svg" viewBox="0 0 278.46 270.92"><defs><style>.cls-1{fill:#ed6435;}.cls-2{fill:#2f3033;}</style></defs><g id="katman_2" data-name="katman 2"><g id="katman_1-2" data-name="katman 1"><g id="OBJECTS"><circle class="cls-1" cx="256.02" cy="80.82" r="22.44"/><path class="cls-2" d="M272.64,64.12C269.05,61.28,266.86,58,261,54.5s-9.84-4.16-16-7.88-23.62-15.09-31.05-15.3-12.25-3.07-19.25-2.63-16.18-1.6-16.18-1.6,1.53-5.69.44-6.64l-1.1-.94s2.48-10.14-4.44-16S153.07-.47,149.35,6.82s0,15,0,15-2.4-.88-2.62,1.24a13.85,13.85,0,0,0,.8,5.9A4.39,4.39,0,0,0,150,31.17s-13.56,4.59-16.48,6.49-18,14.5-23.61,18.73S97.45,63.1,95.77,65.65a8.44,8.44,0,0,0-1.31,5.25s-8.53,7.29-12.9,9.4S60.49,97.58,56,102.83c-2.78,3.23-5.26,6-6.75,7.59-1.6,0-7.41.22-8.92.72-1.75.58-5.54,3.5-8,5a7.73,7.73,0,0,0-3.21,4.37l-1.75.87A12,12,0,0,0,22.8,127c-.29,1.46,4.52-1,6.71-2.48s8.16-1,12.25-.81,3.06,3.44,1.89,5.62a7.89,7.89,0,0,0-.73,6.1c.59,1.44,4.38-4.64,6.86-8.43a43,43,0,0,0,4.08-8.75s20.19-12,26.9-16,9.69-8.17,15.38-10.94a42.92,42.92,0,0,0,9.33-6.12s.87,1,3.06.22a43.44,43.44,0,0,0,5.76-2.77s1.46,4.66-6.42,13.19-15.74,9.62-15.08,13.34a18.15,18.15,0,0,0,2.4,6.34s-19.24,24.72-24,31.06-7.22,14-5,14.87a3.58,3.58,0,0,1,2.4,2.62s-12.46,14-17.27,22.31S39.65,208.68,36.15,214.8s-8.1,9.62-13.56,14.65S.72,245.41.06,247.82,4,255,10.56,253.72s24.06-8.09,29.3-10.71,6.56-4.16,6.56-7.22,3.94-16.18,7.22-18.81S69.17,199.27,76,189.65s11.81-17.72,11.81-17.72,14.65,2.63,19.9-3.49,23-31.5,23.62-30,16,22.62,20.77,26.89c11.81,10.5,19.27,4.62,19.27,4.62s5.22,5.23,6.1,7.85-1.4,15.31,1.92,23,12.51,28,14.48,34.12,4.15,10.27,3.94,11.37-.66,13.78.65,15.53,5.25,3.49,7.44,3.93,6.12,3.72,12.9,4.59,13.34,1.1,14.21-1.75.44-9.4-4.15-12-7.65-2.41-10.28-6.35-5.68-8.31-5.68-8.31-9.41-64.95-10.94-71.73S194,156,194,156s4.59-4.16,1.09-7.44-30.61-33-29.52-33.67,5.47-1.32,4.81-10.94.44-14.43,5.25-21.87,9.62-15.3,11.59-21.65.66-10.27,7.65-11.81,11.81-3.06,11.81-3.06,12.69,4.81,18.59,6.34,17.28,3.28,21.21,5.91,8.75,10.93,11.38,11.37,4.37,0,2.84-2.62a18,18,0,0,1-2-4.59s7.44,2,10.06,3.93,7.65,8.75,7.87,6.56S276.23,67,272.64,64.12Z"/></g></g></g></svg>