<svg xmlns="http://www.w3.org/2000/svg" viewBox="0 0 247.27 307.49"><defs><style>.cls-1{fill:#ed6435;}.cls-2{fill:#2f3033;}</style></defs><g id="katman_2" data-name="katman 2"><g id="katman_1-2" data-name="katman 1"><g id="OBJECTS"><circle class="cls-1" cx="23.83" cy="22.44" r="22.44"/><path class="cls-2" d="M245.54,155.29c-1.81-2.56-3.37-3.12-6.06-4.56s-13.12-6.69-19.37-8.81-11.25-4.75-20.25-9.13-31.38-17.25-31.38-17.25.38-2.12-1.37-6-12.38-10-15.63-14.87-20.87-11.42-21-11.42a20.64,20.64,0,0,0,3.08-.46c1.55-.37,2.63-2.29,3.71-4.33s3.33-5.29,5-8.79.62-9,1.25-11.75-1.25-9.63-1.25-9.63-2.21-7.75-6.54-9.83-20-5.08-25.92,1.92S104.52,60.46,105,65s.33,9,.08,9.33-9-1.75-15.16-1.25S63.1,75.71,58.19,76.71s-4.59,3.58-4.59,3.58L38.44,79.13s-4.59-13.67-6.75-17.75-6.5-16.84-7-19.67-4.84-3.17-6.59-5S16.6,31.29,16.52,29s.33-5.42-1.17-3.75-1.33,7.58-1.5,8.5-1.66-5.33-1.91-8-1.09-3.92-2-2.25.41,8.58.41,8.83a37.88,37.88,0,0,1-3.91-7.75c-1-3.08-1.84-3.5-2.59-2.34s2.5,10.34,2.5,10.59A49.36,49.36,0,0,1,3.1,26.37C1.94,23.62,1.85,22.12.44,22.21S1.27,30.62,4.1,35s7.5,6.66,12,11.33,4.17,7.5,5.17,16.5S25.94,95,32.44,99.62s20,4,20,4,.5,4,4.16,3.84,14.84-4.17,14.84-4.17,1.16,10,1.5,17-4.84,21.33-5,26.09A14.61,14.61,0,0,0,70.77,155a36.75,36.75,0,0,0-8.83,10.83c-3.34,6.5-4.67,13.5-4.67,23.17s-3.83,23.83-3.83,26.66c0,2.45,2.47,4,3.15,4.41l-1.48,9.08S44.4,240.22,40.76,243.26c-1.59,1.32-4,3.12-6.4,4.85a2.37,2.37,0,0,0-1.51-.57c-1.25.33-4.25,3.58-7,4.83s-6.75,2.42-7.58,4.34-2.33,11.41-1,13.08a13.71,13.71,0,0,1,2.1,4.81c-.74,7.48-1.19,16.59.37,21.81,2.43,8.09,10.51,13.34,14,10.11s3.44-27.29,4.85-34.16,3.84-6.27,5.66-10.51S61,251.74,70.68,247.3c6.21-2.85,9.85-12.47,11.66-19a9.69,9.69,0,0,0,4.1-1.8c3.33-2.67,2-8.84,5.5-16.34s5-8.5,5.33-9.83,6,1.5,10.5,3.83,8.33,6.34,12,8.17,9-3.67,9-3.67a92.56,92.56,0,0,0,13,2.67,162.64,162.64,0,0,0,17.33,1.33,76.27,76.27,0,0,0-1.33,9c-.67,6.34.33,12.17.67,20.5a30.53,30.53,0,0,1-1.36,9.58,4.27,4.27,0,0,0-1-.21c-1.89-.08-4.28,4.65-4.88,8s-4.58,8.94-4.88,11.71,1.2,2.56,2.71,4.73,6.15,4.66,8.63,4.66,5.4,4.95,9.68,7.05,13.14,4.43,17.57,4.36,5.41-3,6.16-5-4.88-5.48-8.26-8.11-11.05-13.15-11.34-13.58.83-7,1.13-8.19c.24-.95-1-1.61-2.63-1.62a170.82,170.82,0,0,1,5-16.95c3.33-8.83,7-28,5.16-35s-25.66-18.33-26.16-18.33-6.17-4.67-12-6.17-18.67-8.83-18.67-8.83,3.33-2,5.67-3.73-1.17-11.44,5-18.1,8.83-21.34,8.83-21.84,7.67,1,10.67,3,7,1.17,7,1.17,1.66,2.67,8.66,5.83S214,152.1,218,153.17s4.19,4.25,6.44,5.62,7.25.81,8.25,1.94.31,3.5-.5,4.87-.69,2.63-.12,3.13,1.62-.94,2.5-2.5.62-5.88.62-5.88a26.91,26.91,0,0,1,2.44,3.69,4.89,4.89,0,0,1-.13,2.52c-.18.76,0,2.29.88,2.73s1.75-3.31,1.69-4.69-1-5.37-1.38-5.75,4.13,1.5,4.63,2.82,2,2.93,2.87,2.93.13-2.25-.5-4.18-5.31-4.69-5.75-4.88a10.79,10.79,0,0,1,3.13.75c1.31.5,3.12,2.81,3.81,2.75S247.36,157.86,245.54,155.29Z"/></g></g></g></svg>