<svg xmlns="http://www.w3.org/2000/svg" viewBox="0 0 185.05 311.36"><defs><style>.cls-1{fill:#2f3033;}.cls-2{fill:#ed6435;}</style></defs><g id="katman_2" data-name="katman 2"><g id="katman_1-2" data-name="katman 1"><g id="OBJECTS"><path class="cls-1" d="M107.77,39.78c.81-.06,15.7-.57,19.86,2.3s8.46,12.34,8.89,12.13,11.06-10,10.25-11.55-13-20-14.13-18.9-23.7,5.61-23.7,5.61Z"/><circle class="cls-2" cx="93.37" cy="22.44" r="22.44" transform="translate(61.69 113.1) rotate(-84.25)"/><path class="cls-1" d="M181.57,59.9c-1.24-1.69-.68-2.47-.32-4.51a27.51,27.51,0,0,0-.24-6.13S180.29,38,170.87,32.87s-22.09.75-22.61.86-5-11-7.77-12.35c-4.4-2.16-24.1,2-24.1,2s-6.75-3.23-7.66-5.16-4.23-8.2-5.53-8.9.61,5.6.71,7.32-2.34.29-4.83-3.15S93.71,8.62,92.77,9s3.58,6.21,4.65,7.88.44,1.76-3.17-.29S86.71,12,85.4,13.31s10.24,9.51,7.89,10-10.88-2.34-12-.8,9.32,5.73,11.85,6.33,3.18,1.6,3.83,4.35-5,5.77-6.13,8.48.8,2.44,3.44.51,11.83-4.31,18.09-5.67,11.06-1.3,15.86.71S131.71,48,131.71,48l-2.41,4a22.41,22.41,0,0,1,2.56,10.8c-.28,5.73-4.36,20.15-7.11,28.6s-.71,23.94,2,35.57,2.83,20.11-3.08,27.07,1.87,9.63,1.87,9.63-4.64,2.75-13.87,11.52-21.2,53.26-22,57.37,8.53,5.13,8.53,5.13l-1.55,4.8a103.51,103.51,0,0,0-11.11,2.6c-7.38,2.18-29.42,5.21-29.42,5.21a11.5,11.5,0,0,0-4.73-3c-2.8-.84-20.22,2.06-22.69,4-.64.51-.87,1.71-.88,3.32-2.7-.31-7.19-.16-9.8-.21-3.72-.07-16,2.81-17.66,7.1s3.4,37.89,5.73,44.59,9.15,7,10.89.91,5.46-22.13,8.46-25.4a7.41,7.41,0,0,1,4.15-2.17c1.29,11.09,5.22,29.37,7.44,29.12,2.84-.33,5.32-9,7.86-17.42,1.26-4.16,3-10,4.33-14.81,7.45.49,16.25,1.54,22,1.91,10.85.71,40.19,4.17,46,1.61,1.63-.72,3.38-3.31,5-6.65,12.94.55,27.66.58,30.43-1.91,5.11-4.6,2-19.05,1.06-20.6s5.23-4,5.23-4l1-63.94h0c0-.06,0-.06,0,0s9.53-.32,10.62-7.39,3.27-22.53,6.72-45.54-8.7-44.52-8.91-44.48,7.16.49,9.29-.41,2.56-3.32,2.61-6.09.56-3.11,1.47-4-.11-2.52-.11-2.52,1.28-1.15,1.16-1.34-.79-3.69-.79-3.69S184.57,67,185,65.7,182.81,61.6,181.57,59.9Z"/></g></g></g></svg>