<svg id="Layer_1" data-name="Layer 1" xmlns="http://www.w3.org/2000/svg" viewBox="0 0 636.98 547.04"><defs><style>.cls-1{fill:#ecf1fb;}.cls-2,.cls-4{fill:none;}.cls-2,.cls-4,.cls-5,.cls-7,.cls-8{stroke:#18395c;stroke-miterlimit:10;}.cls-3,.cls-7{fill:#da1c3f;}.cls-4,.cls-5,.cls-7,.cls-8{stroke-width:2px;}.cls-5,.cls-8{fill:#185a8f;}.cls-6{fill:#18395c;}.cls-8{opacity:0.99;}</style></defs><path class="cls-1" d="M370.08,525.94s-3.85-16.26-18.53-9.79c0,0-8,3.49-7.51,14.51,0,0-16.61-1.23-16.61,12.93,0,0-19.75,2.62-12.23,20.27a14.93,14.93,0,0,0,8,6.47h53.67a58.64,58.64,0,0,1,13.52-29.08C391,536.33,390.83,522.16,370.08,525.94Z" transform="translate(-205.75 -372.7)"/><path class="cls-1" d="M674.84,857.13h149s20.61-7,18.77-35-26.86-22.81-26.86-22.81,10.3-45.26-42.31-35.69c0,0-8.1-34.22-39-20.61,0,0-16.92,7.36-15.82,30.54,0,0-35-2.57-35,27.23,0,0-41.58,5.52-25.76,42.68A31.37,31.37,0,0,0,674.84,857.13Z" transform="translate(-205.75 -372.7)"/><line class="cls-2" x1="409.52" y1="238.55" x2="299.33" y2="456.18"/><line class="cls-2" x1="346.64" y1="235.4" x2="294.85" y2="441.74"/><line class="cls-2" x1="285.83" y1="235.4" x2="285.83" y2="299.8"/><line class="cls-2" x1="162.13" y1="236.56" x2="197.24" y2="308.52"/><line class="cls-2" x1="218.9" y1="355.58" x2="240.81" y2="397.66"/><rect class="cls-3" x="238.9" y="28.55" width="4.98" height="11.12" rx="0.98"/><rect class="cls-3" x="329.71" y="48.14" width="4.98" height="11.12" rx="0.98"/><rect class="cls-3" x="238.9" y="48.97" width="4.98" height="35.03" rx="0.98"/><rect class="cls-3" x="271.52" y="9.13" width="4.98" height="65.57" rx="0.98"/><rect class="cls-3" x="301.07" width="4.98" height="25.56" rx="0.98"/><rect class="cls-3" x="301.07" y="38.51" width="4.98" height="36.19" rx="0.98"/><rect class="cls-3" x="329.71" y="67.56" width="4.98" height="27.06" rx="0.98"/><rect class="cls-3" x="454.38" y="314.06" width="4.98" height="11.12" rx="0.98"/><rect class="cls-3" x="454.38" y="333.49" width="4.98" height="31.56" rx="0.98"/><rect class="cls-3" x="472.97" y="281.36" width="4.98" height="23.75" rx="0.98"/><rect class="cls-3" x="472.97" y="321.04" width="4.98" height="35.04" rx="0.98"/><path class="cls-3" d="M450.67,495.7s-43.57,27.21-52.93,98c0,0,5.11-.79,8.81,2.14s11.84,9.27,17.66,10.41,12.37,2.71,15.3-.5,4.44-9.57,12.85-10.51,7.24-1,7.24-1,0-96.95,28.8-112.22c0,0-.51-5.77-2.82-7s-2.81-3.58-7.71-1.51a43,43,0,0,0-8.15,4.49v27.88a6.33,6.33,0,0,1-4.64,5.4c-4.32,1.16-11.09-2-12.44-4S450.67,495.7,450.67,495.7Z" transform="translate(-205.75 -372.7)"/><path class="cls-3" d="M499.44,481.1s32.56,53.69,24,113.25a61.2,61.2,0,0,1,13.82,6.13c8.1,4.68,16.75,8.86,22.92,5.5s8.65-7.85,15.79-9.84,8.12-2.93,8.12-2.93-4-60.82-49.2-95.26c0,0-1.92,2.07-6.57,3.07s-12.61-2.24-12-3.16-.66-27.39-.66-27.39-4.49-7.47-7-6.31-7.3,1.66-8,4S499.44,481.1,499.44,481.1Z" transform="translate(-205.75 -372.7)"/><path class="cls-4" d="M367.88,607.26s3-83.67,73.95-114V475.54s5-4.49,9.47,0v30.62s10.7,10.71,18.42-.25V478s11.21-10.71,18.68,0v20.91s5.73,6.23,10,0V469.31s10-13.94,18.67,0V497s11.21,10,18.68,0V485s6.72-6.48,10.46,0v10.46s72.62,37.6,69,111.8c0,0-22.57-22.08-39.17-11.12s-20.92,17.59-42.5,1.66c0,0-15.61-9.63-25.57,2.32s-24.56,8-34.19-.66-21.25-9-34.2,6.31c0,0-11.95,7.63-32.2-9.3,0,0-10.3-10.29-31.21,8.63C376.1,605.1,369.5,610,367.88,607.26Z" transform="translate(-205.75 -372.7)"/><path class="cls-4" d="M404.65,709.19h9.79l.83-24.9s-.16-2.49-5.31-2.16-13.28,1.16-13.78,2-4.64,5.64-4.15,10.29,0,29.88,0,29.88.71,4.32,2.7,5.31,1,8.31,1,8.31h25.73v-8.64s2.65-3.15,3.23-3.82,0-26.39,0-26.39a3.26,3.26,0,0,0-3.57-3,7.1,7.1,0,0,0-4.81,1.83L416.1,710Z" transform="translate(-205.75 -372.7)"/><path class="cls-4" d="M490.7,698.84h-9.39l-.8-24.9s.16-2.49,5.1-2.16,12.74,1.16,13.22,2,4.45,5.65,4,10.3,0,29.88,0,29.88-.68,4.31-2.59,5.31-1,8.3-1,8.3H474.62v-8.63s-2.55-3.16-3.1-3.82,0-26.39,0-26.39a3.18,3.18,0,0,1,3.42-3,6.69,6.69,0,0,1,4.62,1.82l.16,12.11Z" transform="translate(-205.75 -372.7)"/><path class="cls-5" d="M394,798V737.91h28.38v46.14s-2.65-1.32-3.48,0-.67,2.83-1.83,1.66-1.33-2.15-1.33-4.31-.5-6-.5-6-9.46-2.65-9.29,1.66V798s-2,2.32-3.82.83-2.82-3.49-3.49-4-1.82-1.49-1.82-1.49S395.52,797,394,798Z" transform="translate(-205.75 -372.7)"/><path class="cls-5" d="M472.86,788.37V728.28h28.39V872.7s-.84,13.94-14.19,12.95c0,0-11.11.5-12.61-8.47,0,0,3-8.21,4.49-10.46s4.73-6,3.73-8.71-1-40.59-1-40.59a35,35,0,0,0-7.47-3Z" transform="translate(-205.75 -372.7)"/><path class="cls-6" d="M504.09,865.4a39.12,39.12,0,0,1,4.48,0,16.17,16.17,0,0,1,2.16,6c.66,3.82-1.5,19.09-14.11,22.25s-21.58,2-27.39-5.65,6.64-11.78,6.64-11.78,0,4.81,1.16,5.47,7.3,2.83,10.79,2.83,6,1.32,8.3-2.16,3.32-4,3.48-6.81.34-10.2.34-10.2Z" transform="translate(-205.75 -372.7)"/><circle class="cls-6" cx="206.82" cy="488.55" r="5.23"/><circle class="cls-6" cx="229.61" cy="488.55" r="5.23"/><path class="cls-6" d="M418.55,886.64c0-.75-1.74-3.36,0-5.47s7.35-9.84,18.06-11.58,12.07-.5,20.41,1.24,2.37,14.45-1.37,16.31-8-2.49-15.06,1.12-8.34,5.23-10.46,5.23S418.55,889.63,418.55,886.64Z" transform="translate(-205.75 -372.7)"/><path class="cls-2" d="M390.21,865.32s-7.47.41-7.81-6.9,7-7.3,7.81-7.3" transform="translate(-205.75 -372.7)"/><path class="cls-2" d="M394,789.78s-5.23,6.48-5.23,8.22,2.07,56,1.41,56.77,1.33,7.72,5.06,6.48,4.23-.82,4.73-3,0-20.38,0-20.38,11.15-10,17.78-10.71,21.56-3,26.05-.25,2.74,4.24,6.84,5.48,5.11,2.74,6.1,4.73-.77,1.25,4.47,2.24,6.89,3.49,6.44,5.23,1.05,4-1.19,7.72-3.49,3.92-2.74,5.94,2.32,1.7,4.4.37,1.91-3.4,3.65-4.23,5.39-.5,6.06,1.66,4.06,5.06.58,6.72-3.49,2.67-6.31,2.58-3.73-.84-3.57.66a5.3,5.3,0,0,0,3.4,3.57,2,2,0,0,1,1.66,1.91c0,.66,4.9-.75,4.9-.75s4.82-7,5-9.46-1.82-43.83-1.82-43.83l-6.64-3L472,784.05l-42.58-176" transform="translate(-205.75 -372.7)"/><path class="cls-4" d="M388.3,799.91c0-.67.65-2.57.5-3.24s2.87-3.8,4.06-5.39,1.17-.75,1.91-.5a6,6,0,0,1,2.55,3c.22,1,5.09,3.67,6.08,4.33s1.08-.91,1.08-1.24.34-5.81.34-7.72.08-8-.17-9.63a8.92,8.92,0,0,1,.58-4.15c.25-.5,2.32-1.41,3-1.74s8.13.49,8.71.66,1.66,6.72,1.66,6.72,1.66-.41,1.91-.49a20.84,20.84,0,0,0,3.07-2.58c.75-.83,1.5-.66,1.75-.91a22,22,0,0,0,1.74-2.24c.75-1.08,2.32-.91,3.65-1a4,4,0,0,1,2.24.5l1.41,1.66s0,3.15,1,4.65,2.16-1.16,5.23-1.83,3.73,2.81,3.73,2.81a88.83,88.83,0,0,1,0-9.61c.34-2.83,5-2.16,6.48-3.32s4,3.48,4,3.48.33,17.6.67,18.1,3.48,3.81,5,4.31a1.9,1.9,0,0,0,2.65-1.49c.33-1.16,1-5.48,3.16-9l4.9.38,2.24.87" transform="translate(-205.75 -372.7)"/><path class="cls-7" d="M388.8,850.66c.37,1.25,1.77,7.43,2.48,8.44s.63,2.89,1.87,3.14,4.74.55,5.48-1a18,18,0,0,0,1.58-7c0-2.61-1.79-11.82,0-13.57s2-3.86,4.9-5.85,3-3.86,5.6-3.61a17.5,17.5,0,0,0,2.61.25c1.12,0,4.11-2.37,4.49-2.61s-1.13-1.13,1.61-1,4.36.62,7.85-.13a55.14,55.14,0,0,1,8.88-1.61c4-.34,11.16.12,11.54,1.61s-.15,2.31,1.48,4,.81.81,3.87,2.46,4.61,2.24,5.35,2.74a36.52,36.52,0,0,0,5,2.91c1.89.83,4.87,6.3,4.87,6.3s-2.86,5.24-2.74,6.35-2.59,1.84-2.24,3.49-.14,2.43,1,3a4.05,4.05,0,0,0,4.4-.83c1.06-1.22.6-5.08,5.21-4.26s4,3.8,4.23,5.42-2.67,5.1-2.67,5.1l-5.79.84s0,4.64,2,5.39,1.77,3.1,3.61,1.49,9.09-9.46,9.09-10,.62-44.94,0-45.19-9.39-3.94-9.39-3.94-.32-17.73-.45-19.1-1.59-8.09-1.59-8.09l-5.88-.75s-2.16.81-3,4.33-1.48,7.38-2.71,5.64-6-8-6-8-.29-14.88-.54-15.3a31.41,31.41,0,0,0-3.11-2.52l-5,1-3.37,2.74-.74,6.6L436.15,781l-2.49-5.92-3.53-1.31s-4.4,1-5.48,2.56a20.47,20.47,0,0,1-2.6,3l-1.55,1.18s-2.5-2.81-2.72-3.75.27-1.4-1.47-1.77-8.09-.75-8.09-.75a6.39,6.39,0,0,1-1.93,1.62c-1.49.93-1.54,3.84-1.51,5.59s.63,2.13,0,5.86-.45,7.1-1.33,9.46-7.35-4.87-7.35-4.87a11.24,11.24,0,0,0-3.36,1.39c-2.25,1.24-4,4.73-4,4.73a32.9,32.9,0,0,1-.5,5.1C387.92,804.22,388.8,850.66,388.8,850.66Z" transform="translate(-205.75 -372.7)"/><path class="cls-4" d="M393.2,858.22s-1.66,10,.66,16,11.79,27.06,31.87,29.89,35.36-6.81,45.32-19.93" transform="translate(-205.75 -372.7)"/><path class="cls-7" d="M503.09,826.88h26.39s20.42,9,22.91,23.91v13.28a29.31,29.31,0,0,1-4.48,4.68c-2.16,1.63-45.48,0-45.48,0Z" transform="translate(-205.75 -372.7)"/><path class="cls-8" d="M437.84,904.27s7.23,13.75,15.7,14.25,166.09,0,166.09,0,31.12-7.74,37.84-38.23v-95h-37.1v68s-3.73,11.47-20.67,16.19H505.08s2.3,10.45-3.83,14.68-18.58,5.73-21.82,4.24-9.6-2.69-9.6-2.69S461,902,437.84,904.27Z" transform="translate(-205.75 -372.7)"/><rect class="cls-6" x="345.64" y="496.78" width="14.94" height="49.27"/><path class="cls-5" d="M612.65,792h-12.2v60s-3.73,16.22-14.44,17.45c0,0,24.9-1.88,29.27-8.22s5.09-7.22,5.09-11V792Z" transform="translate(-205.75 -372.7)"/><path class="cls-1" d="M219.64,787H320.49s13.94-4.73,12.69-23.65S315,748,315,748s7-30.63-28.64-24.16c0,0-5.48-23.15-26.39-13.94,0,0-11.46,5-10.71,20.67,0,0-23.66-1.75-23.66,18.42,0,0-28.13,3.74-17.43,28.89A21.21,21.21,0,0,0,219.64,787Z" transform="translate(-205.75 -372.7)"/><path class="cls-7" d="M620.37,754.92h65.24v11s-6.47,12.45-14.19,16.43-51,1.74-51,1.74Z" transform="translate(-205.75 -372.7)"/><rect class="cls-7" x="394.7" y="391.94" width="18.68" height="27.39"/></svg>