<?xml version="1.0" encoding="utf-8"?><!-- Uploaded to: SVG Repo, www.svgrepo.com, Generator: SVG Repo Mixer Tools -->
<svg fill="#000000" width="800px" height="800px" viewBox="0 0 24 24" id="phone-square" data-name="Flat Color" xmlns="http://www.w3.org/2000/svg" class="icon flat-color"><rect id="primary" x="2" y="2" width="20" height="20" rx="3" style="fill: rgb(225,29,72);"></rect><path id="secondary" d="M17.92,14.49A2.4,2.4,0,0,0,16.72,13c-.23-.12-.44-.24-.65-.37a2.38,2.38,0,0,0-3.22.63l-.71,1a13.52,13.52,0,0,1-2.39-2.39l1-.7a2.39,2.39,0,0,0,.63-3.23c-.13-.21-.25-.42-.37-.65a2.4,2.4,0,0,0-1.51-1.2,2.43,2.43,0,0,0-1.93.31l-.66.44a1.79,1.79,0,0,0-.87,2h0a10.25,10.25,0,0,0,1.46,3.33h0a13.26,13.26,0,0,0,1.94,2.38,13.26,13.26,0,0,0,2.38,1.94h0A10.34,10.34,0,0,0,15.19,18a2.18,2.18,0,0,0,.43.05,1.84,1.84,0,0,0,1.55-.92h0l.44-.66A2.43,2.43,0,0,0,17.92,14.49Z" style="fill: rgb(255,255,255);"></path></svg>