<?xml version="1.0" encoding="utf-8"?><!-- Uploaded to: SVG Repo, www.svgrepo.com, Generator: SVG Repo Mixer Tools -->
<svg fill="#000000" width="800px" height="800px" viewBox="0 0 24 24" id="whatsapp" data-name="Flat Color" xmlns="http://www.w3.org/2000/svg" class="icon flat-color"><path id="primary" d="M19.07,4.93A10,10,0,0,0,3,16.26L2,20.8a1,1,0,0,0,.27.91A1,1,0,0,0,3.2,22L7.74,21A9.89,9.89,0,0,0,12,22a10.61,10.61,0,0,0,1.85-.17,10,10,0,0,0,5.22-16.9Z" style="fill: rgb(225,29,72);"></path><path id="secondary" d="M15.68,17a7,7,0,0,1-3-.74l-.16-.08a10.69,10.69,0,0,1-2.71-2,10.52,10.52,0,0,1-2-2.71l-.08-.16A6.36,6.36,0,0,1,7,7.84,1,1,0,0,1,8,7H9.81a1,1,0,0,1,1,.72l.4,1.4a1,1,0,0,1-.25,1l-1,1a9.8,9.8,0,0,0,1.32,1.65,9.42,9.42,0,0,0,1.65,1.32l1-1a1,1,0,0,1,1-.25l1.4.4a1,1,0,0,1,.72,1V16a1,1,0,0,1-.84,1A4.2,4.2,0,0,1,15.68,17Z" style="fill: rgb(255,255,255);"></path></svg>